<?xml version="1.0" encoding="UTF-8"?> <!-- Generator: Adobe Illustrator 16.0.0, SVG Export Plug-In . SVG Version: 6.00 Build 0) --> <svg xmlns="http://www.w3.org/2000/svg" xmlns:xlink="http://www.w3.org/1999/xlink" baseProfile="tiny" id="Слой_1" x="0px" y="0px" width="1000px" height="1000px" viewBox="0 0 1000 1000" xml:space="preserve"> <g> <g> <path fill="#FF6F61" d="M884.991,637.525c0,19.036-15.563,34.464-34.766,34.464h-734.45c-19.201,0-34.767-15.428-34.767-34.464 V218.879c0-19.034,15.565-34.462,34.767-34.462h734.45c19.202,0,34.766,15.428,34.766,34.462V637.525z"></path> </g> <g> <path fill="#FFFFFF" d="M582.15,376.966h-0.012c-4.494-41.296-39.468-73.44-81.959-73.44c-30.825,0-57.681,16.925-71.831,41.979 c-14.15-25.053-41.006-41.979-71.831-41.979c-42.493,0-77.466,32.144-81.96,73.44h-0.012 c-16.964,114.67,121.998,187.075,153.803,197.56C460.154,564.041,599.115,491.637,582.15,376.966z"></path> </g> <g> <path fill="#FFFFFF" d="M706.858,527.224V353.844c-3.155,2.705-6.693,5.321-10.616,7.845c-3.922,2.525-7.934,4.892-12.035,7.1 c-4.104,2.21-8.205,4.192-12.308,5.951c-4.104,1.758-7.911,3.225-11.428,4.396v-15.283c10.638-3.425,20.805-8.136,30.496-14.132 c9.692-5.995,19.09-12.916,28.198-20.759h5.004v198.263H706.858z"></path> </g> <g> <polygon fill="#FF6F61" points="630.168,668.989 472.692,823.916 313.5,668.987 "></polygon> </g> </g> </svg> 